<svg xmlns="http://www.w3.org/2000/svg" xmlns:xlink="http://www.w3.org/1999/xlink" version="1.1" x="0px" y="0px" viewBox="0 0 28 32" style="enable-background:new 0 0 28 32;" xml:space="preserve"><g><g><path d="M23,15H1c-0.55,0-1,0.45-1,1v10c0,0.55,0.45,1,1,1h22c0.551,0,1-0.45,1-1V16C24,15.45,23.551,15,23,15z M9.057,23.432    c-0.56,0.521-1.231,0.625-1.896,0.625c-1.935,0-2.806-1.32-2.806-2.863s0.967-2.87,2.806-2.87c0.696,0,1.247,0.208,1.831,0.712    c0.216,0.199,0.24,0.551,0.024,0.775c-0.216,0.191-0.544,0.168-0.735-0.024c-0.328-0.344-0.664-0.439-1.12-0.439    c-1.231,0-1.823,0.872-1.823,1.847c0,0.992,0.583,1.903,1.823,1.903c0.456,0,0.88-0.185,1.247-0.512    C8.657,22.393,9,22.488,9.145,22.681C9.273,22.856,9.336,23.152,9.057,23.432z M10.37,23.6c-0.264-0.215-0.256-0.566-0.112-0.783    c0.208-0.207,0.439-0.279,0.712-0.056c0.655,0.448,2.343,0.784,2.463-0.353c-0.104-1.183-3.431-0.471-3.183-2.742    c0.184-1.551,2.526-1.83,3.63-0.982c0.544,0.439-0.032,1.135-0.512,0.783c-0.592-0.376-1.935-0.552-2.103,0.279    c-0.216,1.312,3.262,0.561,3.206,2.687C14.416,24.464,11.473,24.512,10.37,23.6z M15.541,23.6    c-0.264-0.215-0.256-0.566-0.111-0.783c0.207-0.207,0.439-0.279,0.711-0.056c0.656,0.448,2.344,0.784,2.463-0.353    c-0.104-1.183-3.43-0.471-3.182-2.742c0.184-1.551,2.525-1.83,3.629-0.982c0.545,0.439-0.031,1.135-0.512,0.783    c-0.592-0.376-1.934-0.552-2.102,0.279c-0.217,1.312,3.262,0.561,3.205,2.687C19.588,24.464,16.645,24.512,15.541,23.6z"></path><path d="M27,7.586L20.414,1C19.836,0.42,18.82,0,18,0H7C5.346,0,4,1.346,4,3v10c0,0.553,0.447,1,1,1s1-0.447,1-1V3    c0-0.551,0.448-1,1-1h9c1.105,0,2,0.896,2,2v3.75C18,8.988,19.014,10,20.25,10H24c1.105,0,2,0.896,2,2v17c0,0.551-0.447,1-1,1H7    c-0.552,0-1-0.449-1-1c0-0.553-0.447-1-1-1s-1,0.447-1,1c0,1.654,1.346,3,3,3h18c1.654,0,3-1.346,3-3V10    C28,9.181,27.58,8.165,27,7.586z"></path></g></g></svg>